<mxfile host="65bd71144e">
    <diagram id="rlpHna2dZdQ53F5dGSps" name="Page-1">
        <mxGraphModel dx="4118" dy="2448" grid="1" gridSize="10" guides="1" tooltips="1" connect="1" arrows="1" fold="1" page="1" pageScale="1" pageWidth="850" pageHeight="1100" math="0" shadow="0">
            <root>
                <mxCell id="0"/>
                <mxCell id="1" parent="0"/>
                <mxCell id="185" value=":CallBackService" style="shape=umlLifeline;perimeter=lifelinePerimeter;whiteSpace=wrap;html=1;container=1;collapsible=0;recursiveResize=0;outlineConnect=0;labelBackgroundColor=default;fontSize=10;fontColor=#FCE8E8;" vertex="1" parent="1">
                    <mxGeometry x="190" y="1140" width="100" height="540" as="geometry"/>
                </mxCell>
                <mxCell id="189" value="" style="html=1;points=[];perimeter=orthogonalPerimeter;labelBackgroundColor=default;fontSize=10;fontColor=#ffffff;fillColor=#1ba1e2;strokeColor=#006EAF;" vertex="1" parent="185">
                    <mxGeometry x="45" y="70" width="10" height="80" as="geometry"/>
                </mxCell>
                <mxCell id="183" value="alert" style="shape=umlFrame;whiteSpace=wrap;html=1;labelBackgroundColor=default;fontSize=10;fontColor=#33FFFF;movable=1;resizable=1;rotatable=1;deletable=1;editable=1;connectable=1;" vertex="1" parent="1">
                    <mxGeometry x="-450" y="1340" width="1470" height="350" as="geometry"/>
                </mxCell>
                <mxCell id="73" value="" style="edgeStyle=none;orthogonalLoop=1;jettySize=auto;html=1;strokeColor=#FCE8E8;fontColor=#F0F0F0;entryX=0.5;entryY=1;entryDx=0;entryDy=0;entryPerimeter=0;endArrow=none;endFill=0;dashed=1;" edge="1" parent="1" source="4" target="72">
                    <mxGeometry width="80" relative="1" as="geometry">
                        <mxPoint x="-151.03846153846166" y="230" as="sourcePoint"/>
                        <mxPoint x="-125.00000000000023" y="150" as="targetPoint"/>
                        <Array as="points"/>
                    </mxGeometry>
                </mxCell>
                <mxCell id="70" value="" style="edgeStyle=none;orthogonalLoop=1;jettySize=auto;html=1;strokeColor=#FCE8E8;fontColor=#F0F0F0;entryX=0.5;entryY=1;entryDx=0;entryDy=0;entryPerimeter=0;endArrow=none;endFill=0;dashed=1;" edge="1" parent="1" source="67" target="68">
                    <mxGeometry width="80" relative="1" as="geometry">
                        <mxPoint x="-320" y="170" as="sourcePoint"/>
                        <mxPoint x="-80" y="320" as="targetPoint"/>
                        <Array as="points"/>
                    </mxGeometry>
                </mxCell>
                <mxCell id="71" value="" style="edgeStyle=none;orthogonalLoop=1;jettySize=auto;html=1;strokeColor=#FCE8E8;fontColor=#F0F0F0;entryX=0.5;entryY=1;entryDx=0;entryDy=0;entryPerimeter=0;endArrow=none;endFill=0;dashed=1;" edge="1" parent="1" source="66" target="69">
                    <mxGeometry width="80" relative="1" as="geometry">
                        <mxPoint x="-310" y="180" as="sourcePoint"/>
                        <mxPoint x="-310" y="150" as="targetPoint"/>
                        <Array as="points"/>
                    </mxGeometry>
                </mxCell>
                <mxCell id="2" value="WebMaster | SuperAdmin" style="shape=umlLifeline;participant=umlActor;perimeter=lifelinePerimeter;whiteSpace=wrap;html=1;container=1;collapsible=0;recursiveResize=0;verticalAlign=top;spacingTop=36;outlineConnect=0;" parent="1" vertex="1">
                    <mxGeometry x="-530" y="170" width="20" height="1040" as="geometry"/>
                </mxCell>
                <mxCell id="3" value="Diagramme de séquence - eventManagment" style="text;align=left;fontStyle=1;verticalAlign=middle;spacingLeft=3;spacingRight=3;strokeColor=none;rotatable=0;points=[[0,0.5],[1,0.5]];portConstraint=eastwest;labelBackgroundColor=default;" parent="1" vertex="1">
                    <mxGeometry x="-410" width="550" height="26" as="geometry"/>
                </mxCell>
                <mxCell id="4" value=":EventListener" style="shape=umlLifeline;perimeter=lifelinePerimeter;whiteSpace=wrap;html=1;container=1;collapsible=0;recursiveResize=0;outlineConnect=0;" parent="1" vertex="1">
                    <mxGeometry x="30" y="180" width="100" height="720" as="geometry"/>
                </mxCell>
                <mxCell id="24" value="" style="html=1;points=[];perimeter=orthogonalPerimeter;labelBackgroundColor=none;" vertex="1" parent="4">
                    <mxGeometry x="45" y="90" width="10" height="60" as="geometry"/>
                </mxCell>
                <mxCell id="48" value="" style="html=1;points=[];perimeter=orthogonalPerimeter;labelBackgroundColor=none;" vertex="1" parent="4">
                    <mxGeometry x="45" y="320" width="10" height="60" as="geometry"/>
                </mxCell>
                <mxCell id="58" value="" style="html=1;points=[];perimeter=orthogonalPerimeter;labelBackgroundColor=none;" vertex="1" parent="4">
                    <mxGeometry x="45" y="620" width="10" height="60" as="geometry"/>
                </mxCell>
                <mxCell id="57" value="Écoute submit('deleteEvent')" style="shape=note2;boundedLbl=1;whiteSpace=wrap;html=1;size=6;verticalAlign=top;align=center;labelBackgroundColor=none;fillColor=#e3c800;fontColor=#000000;strokeColor=#B09500;fontSize=10;" vertex="1" parent="4">
                    <mxGeometry x="-120" y="660" width="155" height="30" as="geometry"/>
                </mxCell>
                <mxCell id="5" value=":EventController" style="shape=umlLifeline;perimeter=lifelinePerimeter;whiteSpace=wrap;html=1;container=1;collapsible=0;recursiveResize=0;outlineConnect=0;" parent="1" vertex="1">
                    <mxGeometry x="350" y="180" width="100" height="1190" as="geometry"/>
                </mxCell>
                <mxCell id="32" value="create" style="html=1;points=[];perimeter=orthogonalPerimeter;labelBackgroundColor=default;" vertex="1" parent="5">
                    <mxGeometry x="45" y="120" width="10" height="130" as="geometry"/>
                </mxCell>
                <mxCell id="109" value="update" style="html=1;points=[];perimeter=orthogonalPerimeter;labelBackgroundColor=default;" vertex="1" parent="5">
                    <mxGeometry x="45" y="340" width="10" height="130" as="geometry"/>
                </mxCell>
                <mxCell id="110" value="delete" style="html=1;points=[];perimeter=orthogonalPerimeter;labelBackgroundColor=default;" vertex="1" parent="5">
                    <mxGeometry x="45" y="510" width="10" height="130" as="geometry"/>
                </mxCell>
                <mxCell id="196" value="get" style="html=1;points=[];perimeter=orthogonalPerimeter;labelBackgroundColor=default;" vertex="1" parent="5">
                    <mxGeometry x="45" y="770" width="10" height="130" as="geometry"/>
                </mxCell>
                <mxCell id="6" value=":ApiEndpoint" style="shape=umlLifeline;perimeter=lifelinePerimeter;whiteSpace=wrap;html=1;container=1;collapsible=0;recursiveResize=0;outlineConnect=0;" parent="1" vertex="1">
                    <mxGeometry x="510" y="180" width="100" height="930" as="geometry"/>
                </mxCell>
                <mxCell id="11" value="" style="html=1;points=[];perimeter=orthogonalPerimeter;" parent="6" vertex="1">
                    <mxGeometry x="45" y="160" width="10" height="70" as="geometry"/>
                </mxCell>
                <mxCell id="40" value="requestControll" style="html=1;verticalAlign=bottom;endArrow=block;" edge="1" parent="6" target="16">
                    <mxGeometry x="0.0238" y="14" width="80" relative="1" as="geometry">
                        <mxPoint x="55" y="180" as="sourcePoint"/>
                        <mxPoint x="200" y="180" as="targetPoint"/>
                        <mxPoint as="offset"/>
                        <Array as="points">
                            <mxPoint x="130" y="180"/>
                        </Array>
                    </mxGeometry>
                </mxCell>
                <mxCell id="111" value="" style="html=1;points=[];perimeter=orthogonalPerimeter;" vertex="1" parent="6">
                    <mxGeometry x="45" y="360.35" width="10" height="20" as="geometry"/>
                </mxCell>
                <mxCell id="112" value="httpRequest" style="html=1;verticalAlign=bottom;endArrow=block;entryX=0;entryY=0;exitX=1.038;exitY=0.305;exitDx=0;exitDy=0;exitPerimeter=0;" edge="1" parent="6" target="111">
                    <mxGeometry x="-0.0025" relative="1" as="geometry">
                        <mxPoint x="-104.61999999999989" y="360.0000000000001" as="sourcePoint"/>
                        <mxPoint as="offset"/>
                    </mxGeometry>
                </mxCell>
                <mxCell id="128" value="callBack" style="html=1;verticalAlign=bottom;endArrow=open;dashed=1;endSize=8;entryX=1.248;entryY=0.677;entryDx=0;entryDy=0;entryPerimeter=0;fontColor=#80FF00;strokeColor=#2D7600;fillColor=#60a917;exitX=-0.282;exitY=0.611;exitDx=0;exitDy=0;exitPerimeter=0;" edge="1" parent="6">
                    <mxGeometry relative="1" as="geometry">
                        <mxPoint x="57.89999999999998" y="200.0700000000001" as="targetPoint"/>
                        <mxPoint x="202.0999999999998" y="199.99999999999994" as="sourcePoint"/>
                    </mxGeometry>
                </mxCell>
                <mxCell id="129" value="issue" style="html=1;verticalAlign=bottom;endArrow=open;dashed=1;endSize=8;entryX=1.458;entryY=0.122;entryDx=0;entryDy=0;entryPerimeter=0;fontColor=#FF0000;strokeColor=#FF3333;" edge="1" parent="6">
                    <mxGeometry relative="1" as="geometry">
                        <mxPoint x="54.99999999999943" y="215.5900000000001" as="targetPoint"/>
                        <mxPoint x="199.91999999999996" y="215.45" as="sourcePoint"/>
                    </mxGeometry>
                </mxCell>
                <mxCell id="130" value="callBack" style="html=1;verticalAlign=bottom;endArrow=open;dashed=1;endSize=8;fontColor=#80FF00;strokeColor=#2D7600;fillColor=#60a917;exitX=-0.282;exitY=0.611;exitDx=0;exitDy=0;exitPerimeter=0;" edge="1" parent="6">
                    <mxGeometry relative="1" as="geometry">
                        <mxPoint x="-100" y="200" as="targetPoint"/>
                        <mxPoint x="44.999999999999886" y="200" as="sourcePoint"/>
                    </mxGeometry>
                </mxCell>
                <mxCell id="131" value="issue" style="html=1;verticalAlign=bottom;endArrow=open;dashed=1;endSize=8;entryX=1.458;entryY=0.122;entryDx=0;entryDy=0;entryPerimeter=0;fontColor=#FF0000;strokeColor=#FF3333;" edge="1" parent="6">
                    <mxGeometry relative="1" as="geometry">
                        <mxPoint x="-102.10000000000048" y="215.59000000000015" as="targetPoint"/>
                        <mxPoint x="42.82000000000005" y="215.45000000000005" as="sourcePoint"/>
                    </mxGeometry>
                </mxCell>
                <mxCell id="36" value="" style="shape=umlDestroy;whiteSpace=wrap;html=1;strokeWidth=3;labelBackgroundColor=none;" vertex="1" parent="6">
                    <mxGeometry x="35" y="910" width="30" height="30" as="geometry"/>
                </mxCell>
                <mxCell id="12" value="httpRequest" style="html=1;verticalAlign=bottom;endArrow=block;entryX=0;entryY=0;exitX=1.038;exitY=0.305;exitDx=0;exitDy=0;exitPerimeter=0;" parent="1" source="32" target="11" edge="1">
                    <mxGeometry x="-0.0025" relative="1" as="geometry">
                        <mxPoint x="410" y="340" as="sourcePoint"/>
                        <mxPoint as="offset"/>
                    </mxGeometry>
                </mxCell>
                <mxCell id="16" value=":EventController" style="shape=umlLifeline;perimeter=lifelinePerimeter;whiteSpace=wrap;html=1;container=1;collapsible=0;recursiveResize=0;outlineConnect=0;" vertex="1" parent="1">
                    <mxGeometry x="670" y="180" width="100" height="940" as="geometry"/>
                </mxCell>
                <mxCell id="41" value="" style="html=1;points=[];perimeter=orthogonalPerimeter;" vertex="1" parent="16">
                    <mxGeometry x="45" y="150" width="10" height="90" as="geometry"/>
                </mxCell>
                <mxCell id="132" value="" style="html=1;points=[];perimeter=orthogonalPerimeter;" vertex="1" parent="16">
                    <mxGeometry x="-115" y="350" width="10" height="70" as="geometry"/>
                </mxCell>
                <mxCell id="133" value="requestControll" style="html=1;verticalAlign=bottom;endArrow=block;" edge="1" parent="16">
                    <mxGeometry x="0.0238" y="14" width="80" relative="1" as="geometry">
                        <mxPoint x="-105" y="370" as="sourcePoint"/>
                        <mxPoint x="49.5" y="370" as="targetPoint"/>
                        <mxPoint as="offset"/>
                        <Array as="points">
                            <mxPoint x="-30" y="370"/>
                        </Array>
                    </mxGeometry>
                </mxCell>
                <mxCell id="134" value="callBack" style="html=1;verticalAlign=bottom;endArrow=open;dashed=1;endSize=8;entryX=1.248;entryY=0.677;entryDx=0;entryDy=0;entryPerimeter=0;fontColor=#80FF00;strokeColor=#2D7600;fillColor=#60a917;exitX=-0.282;exitY=0.611;exitDx=0;exitDy=0;exitPerimeter=0;" edge="1" parent="16">
                    <mxGeometry relative="1" as="geometry">
                        <mxPoint x="-102.09999999999991" y="390.07000000000016" as="targetPoint"/>
                        <mxPoint x="42.09999999999991" y="390" as="sourcePoint"/>
                    </mxGeometry>
                </mxCell>
                <mxCell id="135" value="issue" style="html=1;verticalAlign=bottom;endArrow=open;dashed=1;endSize=8;entryX=1.458;entryY=0.122;entryDx=0;entryDy=0;entryPerimeter=0;fontColor=#FF0000;strokeColor=#FF3333;" edge="1" parent="16">
                    <mxGeometry relative="1" as="geometry">
                        <mxPoint x="-105.00000000000045" y="405.59000000000015" as="targetPoint"/>
                        <mxPoint x="39.92000000000007" y="405.45000000000005" as="sourcePoint"/>
                    </mxGeometry>
                </mxCell>
                <mxCell id="136" value="callBack" style="html=1;verticalAlign=bottom;endArrow=open;dashed=1;endSize=8;fontColor=#80FF00;strokeColor=#2D7600;fillColor=#60a917;exitX=-0.282;exitY=0.611;exitDx=0;exitDy=0;exitPerimeter=0;" edge="1" parent="16">
                    <mxGeometry relative="1" as="geometry">
                        <mxPoint x="-260" y="390" as="targetPoint"/>
                        <mxPoint x="-115" y="390" as="sourcePoint"/>
                    </mxGeometry>
                </mxCell>
                <mxCell id="137" value="issue" style="html=1;verticalAlign=bottom;endArrow=open;dashed=1;endSize=8;entryX=1.458;entryY=0.122;entryDx=0;entryDy=0;entryPerimeter=0;fontColor=#FF0000;strokeColor=#FF3333;" edge="1" parent="16">
                    <mxGeometry relative="1" as="geometry">
                        <mxPoint x="-262.10000000000036" y="405.59000000000015" as="targetPoint"/>
                        <mxPoint x="-117.17999999999984" y="405.45000000000005" as="sourcePoint"/>
                    </mxGeometry>
                </mxCell>
                <mxCell id="139" value="" style="html=1;points=[];perimeter=orthogonalPerimeter;" vertex="1" parent="16">
                    <mxGeometry x="45" y="340" width="10" height="90" as="geometry"/>
                </mxCell>
                <mxCell id="140" value="" style="html=1;points=[];perimeter=orthogonalPerimeter;" vertex="1" parent="16">
                    <mxGeometry x="205" y="370" width="10" height="50" as="geometry"/>
                </mxCell>
                <mxCell id="141" value="new Event" style="html=1;verticalAlign=bottom;endArrow=block;entryX=0.008;entryY=0.074;entryDx=0;entryDy=0;entryPerimeter=0;" edge="1" parent="16">
                    <mxGeometry x="0.0238" y="14" width="80" relative="1" as="geometry">
                        <mxPoint x="54.92000000000007" y="380" as="sourcePoint"/>
                        <mxPoint x="205" y="380.3600000000001" as="targetPoint"/>
                        <mxPoint as="offset"/>
                        <Array as="points">
                            <mxPoint x="129.91999999999996" y="380"/>
                        </Array>
                    </mxGeometry>
                </mxCell>
                <mxCell id="142" value="callBack" style="html=1;verticalAlign=bottom;endArrow=open;dashed=1;endSize=8;entryX=1.248;entryY=0.677;entryDx=0;entryDy=0;entryPerimeter=0;fontColor=#80FF00;strokeColor=#2D7600;fillColor=#60a917;exitX=-0.282;exitY=0.611;exitDx=0;exitDy=0;exitPerimeter=0;" edge="1" parent="16" source="140">
                    <mxGeometry relative="1" as="geometry">
                        <mxPoint x="57.98000000000002" y="400.6200000000001" as="targetPoint"/>
                        <mxPoint x="-634.5" y="220" as="sourcePoint"/>
                    </mxGeometry>
                </mxCell>
                <mxCell id="143" value="issue" style="html=1;verticalAlign=bottom;endArrow=open;dashed=1;endSize=8;entryX=1.458;entryY=0.122;entryDx=0;entryDy=0;entryPerimeter=0;fontColor=#FF0000;strokeColor=#FF3333;" edge="1" parent="16">
                    <mxGeometry relative="1" as="geometry">
                        <mxPoint x="55.07999999999993" y="416.1400000000001" as="targetPoint"/>
                        <mxPoint x="200" y="416" as="sourcePoint"/>
                    </mxGeometry>
                </mxCell>
                <mxCell id="144" value="" style="html=1;points=[];perimeter=orthogonalPerimeter;" vertex="1" parent="16">
                    <mxGeometry x="-115" y="540" width="10" height="70" as="geometry"/>
                </mxCell>
                <mxCell id="145" value="requestControll" style="html=1;verticalAlign=bottom;endArrow=block;" edge="1" parent="16">
                    <mxGeometry x="0.0238" y="14" width="80" relative="1" as="geometry">
                        <mxPoint x="-105" y="560" as="sourcePoint"/>
                        <mxPoint x="49.5" y="560" as="targetPoint"/>
                        <mxPoint as="offset"/>
                        <Array as="points">
                            <mxPoint x="-30" y="560"/>
                        </Array>
                    </mxGeometry>
                </mxCell>
                <mxCell id="146" value="callBack" style="html=1;verticalAlign=bottom;endArrow=open;dashed=1;endSize=8;entryX=1.248;entryY=0.677;entryDx=0;entryDy=0;entryPerimeter=0;fontColor=#80FF00;strokeColor=#2D7600;fillColor=#60a917;exitX=-0.282;exitY=0.611;exitDx=0;exitDy=0;exitPerimeter=0;" edge="1" parent="16">
                    <mxGeometry relative="1" as="geometry">
                        <mxPoint x="-102.09999999999991" y="580.0700000000002" as="targetPoint"/>
                        <mxPoint x="42.09999999999991" y="580" as="sourcePoint"/>
                    </mxGeometry>
                </mxCell>
                <mxCell id="147" value="issue" style="html=1;verticalAlign=bottom;endArrow=open;dashed=1;endSize=8;entryX=1.458;entryY=0.122;entryDx=0;entryDy=0;entryPerimeter=0;fontColor=#FF0000;strokeColor=#FF3333;" edge="1" parent="16">
                    <mxGeometry relative="1" as="geometry">
                        <mxPoint x="-105.00000000000045" y="595.5900000000001" as="targetPoint"/>
                        <mxPoint x="39.92000000000007" y="595.45" as="sourcePoint"/>
                    </mxGeometry>
                </mxCell>
                <mxCell id="148" value="callBack" style="html=1;verticalAlign=bottom;endArrow=open;dashed=1;endSize=8;fontColor=#80FF00;strokeColor=#2D7600;fillColor=#60a917;exitX=-0.282;exitY=0.611;exitDx=0;exitDy=0;exitPerimeter=0;" edge="1" parent="16">
                    <mxGeometry relative="1" as="geometry">
                        <mxPoint x="-260" y="580" as="targetPoint"/>
                        <mxPoint x="-115" y="580" as="sourcePoint"/>
                    </mxGeometry>
                </mxCell>
                <mxCell id="149" value="issue" style="html=1;verticalAlign=bottom;endArrow=open;dashed=1;endSize=8;entryX=1.458;entryY=0.122;entryDx=0;entryDy=0;entryPerimeter=0;fontColor=#FF0000;strokeColor=#FF3333;" edge="1" parent="16">
                    <mxGeometry relative="1" as="geometry">
                        <mxPoint x="-262.10000000000036" y="595.5900000000001" as="targetPoint"/>
                        <mxPoint x="-117.17999999999984" y="595.45" as="sourcePoint"/>
                    </mxGeometry>
                </mxCell>
                <mxCell id="150" value="httpRequest" style="html=1;verticalAlign=bottom;endArrow=block;entryX=0;entryY=0;exitX=1.038;exitY=0.305;exitDx=0;exitDy=0;exitPerimeter=0;" edge="1" parent="16" target="144">
                    <mxGeometry x="-0.0025" relative="1" as="geometry">
                        <mxPoint x="-264.6199999999999" y="539.6500000000001" as="sourcePoint"/>
                        <mxPoint as="offset"/>
                    </mxGeometry>
                </mxCell>
                <mxCell id="151" value="" style="html=1;points=[];perimeter=orthogonalPerimeter;" vertex="1" parent="16">
                    <mxGeometry x="45" y="530" width="10" height="90" as="geometry"/>
                </mxCell>
                <mxCell id="152" value="" style="html=1;points=[];perimeter=orthogonalPerimeter;" vertex="1" parent="16">
                    <mxGeometry x="205" y="560" width="10" height="50" as="geometry"/>
                </mxCell>
                <mxCell id="153" value="new Event" style="html=1;verticalAlign=bottom;endArrow=block;entryX=0.008;entryY=0.074;entryDx=0;entryDy=0;entryPerimeter=0;" edge="1" parent="16">
                    <mxGeometry x="0.0238" y="14" width="80" relative="1" as="geometry">
                        <mxPoint x="54.92000000000007" y="570" as="sourcePoint"/>
                        <mxPoint x="205" y="570.3600000000001" as="targetPoint"/>
                        <mxPoint as="offset"/>
                        <Array as="points">
                            <mxPoint x="129.91999999999996" y="570"/>
                        </Array>
                    </mxGeometry>
                </mxCell>
                <mxCell id="154" value="callBack" style="html=1;verticalAlign=bottom;endArrow=open;dashed=1;endSize=8;entryX=1.248;entryY=0.677;entryDx=0;entryDy=0;entryPerimeter=0;fontColor=#80FF00;strokeColor=#2D7600;fillColor=#60a917;exitX=-0.282;exitY=0.611;exitDx=0;exitDy=0;exitPerimeter=0;" edge="1" parent="16" source="152">
                    <mxGeometry relative="1" as="geometry">
                        <mxPoint x="57.98000000000002" y="590.6200000000001" as="targetPoint"/>
                        <mxPoint x="-634.5" y="410" as="sourcePoint"/>
                    </mxGeometry>
                </mxCell>
                <mxCell id="155" value="issue" style="html=1;verticalAlign=bottom;endArrow=open;dashed=1;endSize=8;entryX=1.458;entryY=0.122;entryDx=0;entryDy=0;entryPerimeter=0;fontColor=#FF0000;strokeColor=#FF3333;" edge="1" parent="16">
                    <mxGeometry relative="1" as="geometry">
                        <mxPoint x="55.07999999999993" y="606.1400000000001" as="targetPoint"/>
                        <mxPoint x="200" y="606" as="sourcePoint"/>
                    </mxGeometry>
                </mxCell>
                <mxCell id="37" value="" style="shape=umlDestroy;whiteSpace=wrap;html=1;strokeWidth=3;labelBackgroundColor=none;" vertex="1" parent="16">
                    <mxGeometry x="35" y="920" width="30" height="30" as="geometry"/>
                </mxCell>
                <mxCell id="156" value="" style="html=1;points=[];perimeter=orthogonalPerimeter;" vertex="1" parent="16">
                    <mxGeometry x="-115" y="830" width="10" height="70" as="geometry"/>
                </mxCell>
                <mxCell id="157" value="requestControll" style="html=1;verticalAlign=bottom;endArrow=block;" edge="1" parent="16">
                    <mxGeometry x="0.0238" y="14" width="80" relative="1" as="geometry">
                        <mxPoint x="-105" y="850" as="sourcePoint"/>
                        <mxPoint x="49.5" y="850" as="targetPoint"/>
                        <mxPoint as="offset"/>
                        <Array as="points">
                            <mxPoint x="-30" y="850"/>
                        </Array>
                    </mxGeometry>
                </mxCell>
                <mxCell id="158" value="callBack" style="html=1;verticalAlign=bottom;endArrow=open;dashed=1;endSize=8;entryX=1.248;entryY=0.677;entryDx=0;entryDy=0;entryPerimeter=0;fontColor=#80FF00;strokeColor=#2D7600;fillColor=#60a917;exitX=-0.282;exitY=0.611;exitDx=0;exitDy=0;exitPerimeter=0;" edge="1" parent="16">
                    <mxGeometry relative="1" as="geometry">
                        <mxPoint x="-102.09999999999991" y="870.0700000000002" as="targetPoint"/>
                        <mxPoint x="42.09999999999991" y="870" as="sourcePoint"/>
                    </mxGeometry>
                </mxCell>
                <mxCell id="159" value="issue" style="html=1;verticalAlign=bottom;endArrow=open;dashed=1;endSize=8;entryX=1.458;entryY=0.122;entryDx=0;entryDy=0;entryPerimeter=0;fontColor=#FF0000;strokeColor=#FF3333;" edge="1" parent="16">
                    <mxGeometry relative="1" as="geometry">
                        <mxPoint x="-105.00000000000045" y="885.5900000000001" as="targetPoint"/>
                        <mxPoint x="39.92000000000007" y="885.45" as="sourcePoint"/>
                    </mxGeometry>
                </mxCell>
                <mxCell id="160" value="callBack" style="html=1;verticalAlign=bottom;endArrow=open;dashed=1;endSize=8;fontColor=#80FF00;strokeColor=#2D7600;fillColor=#60a917;exitX=-0.282;exitY=0.611;exitDx=0;exitDy=0;exitPerimeter=0;" edge="1" parent="16">
                    <mxGeometry relative="1" as="geometry">
                        <mxPoint x="-260" y="870" as="targetPoint"/>
                        <mxPoint x="-115" y="870" as="sourcePoint"/>
                    </mxGeometry>
                </mxCell>
                <mxCell id="161" value="issue" style="html=1;verticalAlign=bottom;endArrow=open;dashed=1;endSize=8;fontColor=#FF0000;strokeColor=#FF3333;" edge="1" parent="16">
                    <mxGeometry relative="1" as="geometry">
                        <mxPoint x="-270" y="885" as="targetPoint"/>
                        <mxPoint x="-117.17999999999984" y="885.45" as="sourcePoint"/>
                    </mxGeometry>
                </mxCell>
                <mxCell id="163" value="" style="html=1;points=[];perimeter=orthogonalPerimeter;" vertex="1" parent="16">
                    <mxGeometry x="45" y="820" width="10" height="90" as="geometry"/>
                </mxCell>
                <mxCell id="164" value="" style="html=1;points=[];perimeter=orthogonalPerimeter;" vertex="1" parent="16">
                    <mxGeometry x="205" y="850" width="10" height="50" as="geometry"/>
                </mxCell>
                <mxCell id="165" value="new Event" style="html=1;verticalAlign=bottom;endArrow=block;entryX=0.008;entryY=0.074;entryDx=0;entryDy=0;entryPerimeter=0;" edge="1" parent="16">
                    <mxGeometry x="0.0238" y="14" width="80" relative="1" as="geometry">
                        <mxPoint x="54.92000000000007" y="860" as="sourcePoint"/>
                        <mxPoint x="205" y="860.3600000000001" as="targetPoint"/>
                        <mxPoint as="offset"/>
                        <Array as="points">
                            <mxPoint x="129.91999999999996" y="860"/>
                        </Array>
                    </mxGeometry>
                </mxCell>
                <mxCell id="166" value="callBack" style="html=1;verticalAlign=bottom;endArrow=open;dashed=1;endSize=8;entryX=1.248;entryY=0.677;entryDx=0;entryDy=0;entryPerimeter=0;fontColor=#80FF00;strokeColor=#2D7600;fillColor=#60a917;exitX=-0.282;exitY=0.611;exitDx=0;exitDy=0;exitPerimeter=0;" edge="1" parent="16" source="164">
                    <mxGeometry relative="1" as="geometry">
                        <mxPoint x="57.98000000000002" y="880.6200000000001" as="targetPoint"/>
                        <mxPoint x="-634.5" y="700" as="sourcePoint"/>
                    </mxGeometry>
                </mxCell>
                <mxCell id="167" value="issue" style="html=1;verticalAlign=bottom;endArrow=open;dashed=1;endSize=8;entryX=1.458;entryY=0.122;entryDx=0;entryDy=0;entryPerimeter=0;fontColor=#FF0000;strokeColor=#FF3333;" edge="1" parent="16">
                    <mxGeometry relative="1" as="geometry">
                        <mxPoint x="55.07999999999993" y="896.1400000000001" as="targetPoint"/>
                        <mxPoint x="200" y="896" as="sourcePoint"/>
                    </mxGeometry>
                </mxCell>
                <mxCell id="17" value=":EventModels" style="shape=umlLifeline;perimeter=lifelinePerimeter;whiteSpace=wrap;html=1;container=1;collapsible=0;recursiveResize=0;outlineConnect=0;" vertex="1" parent="1">
                    <mxGeometry x="830" y="180" width="100" height="940" as="geometry"/>
                </mxCell>
                <mxCell id="42" value="" style="html=1;points=[];perimeter=orthogonalPerimeter;" vertex="1" parent="17">
                    <mxGeometry x="45" y="180" width="10" height="740" as="geometry"/>
                </mxCell>
                <mxCell id="44" value="new Event" style="html=1;verticalAlign=bottom;endArrow=block;entryX=0.008;entryY=0.074;entryDx=0;entryDy=0;entryPerimeter=0;" edge="1" parent="17">
                    <mxGeometry x="0.0238" y="14" width="80" relative="1" as="geometry">
                        <mxPoint x="-105.08000000000004" y="190" as="sourcePoint"/>
                        <mxPoint x="44.999999999999886" y="190.36" as="targetPoint"/>
                        <mxPoint as="offset"/>
                        <Array as="points">
                            <mxPoint x="-30.08000000000004" y="190"/>
                        </Array>
                    </mxGeometry>
                </mxCell>
                <mxCell id="124" value="callBack" style="html=1;verticalAlign=bottom;endArrow=open;dashed=1;endSize=8;entryX=1.248;entryY=0.677;entryDx=0;entryDy=0;entryPerimeter=0;fontColor=#80FF00;strokeColor=#2D7600;fillColor=#60a917;exitX=-0.245;exitY=0.068;exitDx=0;exitDy=0;exitPerimeter=0;" edge="1" parent="17" source="42">
                    <mxGeometry relative="1" as="geometry">
                        <mxPoint x="-102.01999999999998" y="210.62000000000012" as="targetPoint"/>
                        <mxPoint x="35.5" y="210" as="sourcePoint"/>
                    </mxGeometry>
                </mxCell>
                <mxCell id="125" value="issue" style="html=1;verticalAlign=bottom;endArrow=open;dashed=1;endSize=8;entryX=1.458;entryY=0.122;entryDx=0;entryDy=0;entryPerimeter=0;fontColor=#FF0000;strokeColor=#FF3333;" edge="1" parent="17">
                    <mxGeometry relative="1" as="geometry">
                        <mxPoint x="-104.92000000000007" y="226.1400000000001" as="targetPoint"/>
                        <mxPoint x="40" y="226" as="sourcePoint"/>
                    </mxGeometry>
                </mxCell>
                <mxCell id="38" value="" style="shape=umlDestroy;whiteSpace=wrap;html=1;strokeWidth=3;labelBackgroundColor=none;" vertex="1" parent="17">
                    <mxGeometry x="35" y="920" width="30" height="30" as="geometry"/>
                </mxCell>
                <mxCell id="19" value=":EventService" style="shape=umlLifeline;perimeter=lifelinePerimeter;whiteSpace=wrap;html=1;container=1;collapsible=0;recursiveResize=0;outlineConnect=0;" vertex="1" parent="1">
                    <mxGeometry x="190" y="180" width="100" height="940" as="geometry"/>
                </mxCell>
                <mxCell id="64" value="" style="html=1;points=[];perimeter=orthogonalPerimeter;labelBackgroundColor=default;fontColor=#000000;fillColor=#fa6800;strokeColor=#C73500;" vertex="1" parent="19">
                    <mxGeometry x="50" y="140" width="10" height="70" as="geometry"/>
                </mxCell>
                <mxCell id="65" value="call createEvent()" style="edgeStyle=orthogonalEdgeStyle;html=1;align=left;spacingLeft=2;endArrow=block;rounded=0;entryX=1;entryY=0;strokeColor=#C73500;fontColor=#FF8000;fillColor=#fa6800;" edge="1" target="64" parent="19">
                    <mxGeometry relative="1" as="geometry">
                        <mxPoint x="55" y="120" as="sourcePoint"/>
                        <Array as="points">
                            <mxPoint x="85" y="120"/>
                        </Array>
                    </mxGeometry>
                </mxCell>
                <mxCell id="107" value="" style="html=1;points=[];perimeter=orthogonalPerimeter;labelBackgroundColor=default;fontSize=10;fontColor=#000000;fillColor=#fa6800;strokeColor=#C73500;" vertex="1" parent="19">
                    <mxGeometry x="50" y="370" width="10" height="50" as="geometry"/>
                </mxCell>
                <mxCell id="108" value="self call updateEvent" style="edgeStyle=orthogonalEdgeStyle;html=1;align=left;spacingLeft=2;endArrow=block;rounded=0;entryX=1;entryY=0;dashed=1;strokeColor=#C73500;fontSize=10;fontColor=#FF8000;fillColor=#fa6800;" edge="1" target="107" parent="19">
                    <mxGeometry relative="1" as="geometry">
                        <mxPoint x="55" y="350" as="sourcePoint"/>
                        <Array as="points">
                            <mxPoint x="85" y="350"/>
                        </Array>
                    </mxGeometry>
                </mxCell>
                <mxCell id="121" value="" style="html=1;points=[];perimeter=orthogonalPerimeter;labelBackgroundColor=default;fontSize=10;fontColor=#000000;fillColor=#fa6800;strokeColor=#C73500;" vertex="1" parent="19">
                    <mxGeometry x="50" y="765.03" width="10" height="134.97" as="geometry"/>
                </mxCell>
                <mxCell id="122" value="self returnGettingData" style="edgeStyle=orthogonalEdgeStyle;html=1;align=left;spacingLeft=2;endArrow=block;rounded=0;entryX=1;entryY=0;dashed=1;strokeColor=#C73500;fontSize=10;fontColor=#FF8000;fillColor=#fa6800;" edge="1" target="121" parent="19">
                    <mxGeometry relative="1" as="geometry">
                        <mxPoint x="55" y="740.03" as="sourcePoint"/>
                        <Array as="points">
                            <mxPoint x="85" y="740.03"/>
                        </Array>
                    </mxGeometry>
                </mxCell>
                <mxCell id="33" value="" style="shape=umlDestroy;whiteSpace=wrap;html=1;strokeWidth=3;labelBackgroundColor=none;" vertex="1" parent="19">
                    <mxGeometry x="35" y="920" width="30" height="30" as="geometry"/>
                </mxCell>
                <mxCell id="201" value="issue" style="html=1;verticalAlign=bottom;endArrow=open;dashed=1;endSize=8;entryX=1.194;entryY=0.153;entryDx=0;entryDy=0;entryPerimeter=0;fontColor=#FF0000;strokeColor=#FF3333;edgeStyle=orthogonalEdgeStyle;" edge="1" parent="19" target="191">
                    <mxGeometry x="-0.9671" relative="1" as="geometry">
                        <mxPoint x="59.99999999999963" y="630.1400000000001" as="targetPoint"/>
                        <mxPoint x="204.9200000000002" y="630" as="sourcePoint"/>
                        <Array as="points">
                            <mxPoint x="170" y="630"/>
                            <mxPoint x="170" y="1389"/>
                        </Array>
                        <mxPoint as="offset"/>
                    </mxGeometry>
                </mxCell>
                <mxCell id="20" value="FrontEnd" style="shape=note2;boundedLbl=1;whiteSpace=wrap;html=1;size=6;verticalAlign=top;align=center;labelBackgroundColor=none;fillColor=#e3c800;fontColor=#000000;strokeColor=#B09500;" vertex="1" parent="1">
                    <mxGeometry x="10" y="40" width="425" height="40" as="geometry"/>
                </mxCell>
                <mxCell id="21" value="BackEn" style="shape=note2;boundedLbl=1;whiteSpace=wrap;html=1;size=6;verticalAlign=top;align=center;labelBackgroundColor=none;fillColor=#e3c800;fontColor=#000000;strokeColor=#B09500;" vertex="1" parent="1">
                    <mxGeometry x="510" y="40" width="420" height="40" as="geometry"/>
                </mxCell>
                <mxCell id="23" value="verifyData" style="html=1;verticalAlign=bottom;endArrow=block;exitX=0.993;exitY=0.412;exitDx=0;exitDy=0;exitPerimeter=0;" edge="1" parent="1" source="64" target="5">
                    <mxGeometry width="80" relative="1" as="geometry">
                        <mxPoint x="250" y="316" as="sourcePoint"/>
                        <mxPoint x="390" y="316" as="targetPoint"/>
                    </mxGeometry>
                </mxCell>
                <mxCell id="22" value="createNewEvent" style="html=1;verticalAlign=bottom;endArrow=block;" edge="1" parent="1" source="24">
                    <mxGeometry x="0.0238" y="14" width="80" relative="1" as="geometry">
                        <mxPoint x="80" y="290" as="sourcePoint"/>
                        <mxPoint x="230" y="300" as="targetPoint"/>
                        <mxPoint as="offset"/>
                    </mxGeometry>
                </mxCell>
                <mxCell id="47" value="updateEvent" style="html=1;verticalAlign=bottom;endArrow=block;entryX=-0.182;entryY=0.172;entryDx=0;entryDy=0;entryPerimeter=0;exitX=0.984;exitY=0.194;exitDx=0;exitDy=0;exitPerimeter=0;" edge="1" parent="1" source="80">
                    <mxGeometry x="-0.0176" y="10" width="80" relative="1" as="geometry">
                        <mxPoint x="-110" y="520" as="sourcePoint"/>
                        <mxPoint x="73.18000000000006" y="520.32" as="targetPoint"/>
                        <mxPoint as="offset"/>
                    </mxGeometry>
                </mxCell>
                <mxCell id="50" value="updateAnEvent" style="html=1;verticalAlign=bottom;endArrow=block;" edge="1" parent="1">
                    <mxGeometry x="0.0238" y="14" width="80" relative="1" as="geometry">
                        <mxPoint x="90" y="530" as="sourcePoint"/>
                        <mxPoint x="230" y="530" as="targetPoint"/>
                        <mxPoint as="offset"/>
                    </mxGeometry>
                </mxCell>
                <mxCell id="55" value="Écoute submit('newEvent')" style="shape=note2;boundedLbl=1;whiteSpace=wrap;html=1;size=6;verticalAlign=top;align=center;labelBackgroundColor=none;fillColor=#e3c800;fontColor=#000000;strokeColor=#B09500;fontSize=10;" vertex="1" parent="1">
                    <mxGeometry x="80" y="310" width="125" height="50" as="geometry"/>
                </mxCell>
                <mxCell id="56" value="Écoute submit('updateEvent')" style="shape=note2;boundedLbl=1;whiteSpace=wrap;html=1;size=6;verticalAlign=top;align=center;labelBackgroundColor=none;fillColor=#e3c800;fontColor=#000000;strokeColor=#B09500;fontSize=10;" vertex="1" parent="1">
                    <mxGeometry x="-80" y="530" width="145" height="30" as="geometry"/>
                </mxCell>
                <mxCell id="35" value="" style="shape=umlDestroy;whiteSpace=wrap;html=1;strokeWidth=3;labelBackgroundColor=none;" vertex="1" parent="1">
                    <mxGeometry x="225" y="1670" width="30" height="30" as="geometry"/>
                </mxCell>
                <mxCell id="66" value=":Component" style="shape=umlLifeline;perimeter=lifelinePerimeter;whiteSpace=wrap;html=1;container=1;collapsible=0;recursiveResize=0;outlineConnect=0;labelBackgroundColor=default;fontColor=#F0F0F0;" vertex="1" parent="1">
                    <mxGeometry x="-210" y="180" width="100" height="920" as="geometry"/>
                </mxCell>
                <mxCell id="76" value="createEventForm" style="html=1;points=[];perimeter=orthogonalPerimeter;labelBackgroundColor=default;fontColor=#F0F0F0;" vertex="1" parent="66">
                    <mxGeometry x="45" y="90" width="10" height="120" as="geometry"/>
                </mxCell>
                <mxCell id="79" value="eventAgendaList" style="html=1;points=[];perimeter=orthogonalPerimeter;labelBackgroundColor=default;fontColor=#F0F0F0;" vertex="1" parent="66">
                    <mxGeometry x="45" y="270" width="10" height="620" as="geometry"/>
                </mxCell>
                <mxCell id="80" value="updateEvent" style="html=1;points=[];perimeter=orthogonalPerimeter;labelBackgroundColor=default;fontSize=10;fontColor=#F0F0F0;" vertex="1" parent="66">
                    <mxGeometry x="50" y="300" width="10" height="210" as="geometry"/>
                </mxCell>
                <mxCell id="81" value="self call" style="edgeStyle=orthogonalEdgeStyle;html=1;align=left;spacingLeft=2;endArrow=block;rounded=0;entryX=1;entryY=0;dashed=1;strokeColor=#FCE8E8;fontSize=10;fontColor=#F0F0F0;exitX=1.133;exitY=0.014;exitDx=0;exitDy=0;exitPerimeter=0;" edge="1" target="80" parent="66" source="79">
                    <mxGeometry relative="1" as="geometry">
                        <mxPoint x="55" y="345" as="sourcePoint"/>
                        <Array as="points">
                            <mxPoint x="56" y="280"/>
                            <mxPoint x="85" y="280"/>
                            <mxPoint x="85" y="300"/>
                        </Array>
                    </mxGeometry>
                </mxCell>
                <mxCell id="82" value="deleteEvent" style="html=1;points=[];perimeter=orthogonalPerimeter;labelBackgroundColor=default;fontSize=10;fontColor=#F0F0F0;" vertex="1" parent="66">
                    <mxGeometry x="50" y="610" width="10" height="140" as="geometry"/>
                </mxCell>
                <mxCell id="83" value="self call" style="edgeStyle=orthogonalEdgeStyle;html=1;align=left;spacingLeft=2;endArrow=block;rounded=0;entryX=1;entryY=0;dashed=1;strokeColor=#FCE8E8;fontSize=10;fontColor=#F0F0F0;exitX=1.014;exitY=0.541;exitDx=0;exitDy=0;exitPerimeter=0;" edge="1" target="82" parent="66" source="79">
                    <mxGeometry relative="1" as="geometry">
                        <mxPoint x="60" y="590" as="sourcePoint"/>
                        <Array as="points">
                            <mxPoint x="90" y="589"/>
                            <mxPoint x="90" y="610"/>
                        </Array>
                    </mxGeometry>
                </mxCell>
                <mxCell id="86" value="createEventBtn" style="html=1;points=[];perimeter=orthogonalPerimeter;labelBackgroundColor=default;fontSize=10;fontColor=#F0F0F0;" vertex="1" parent="66">
                    <mxGeometry x="45" y="220" width="10" height="40" as="geometry"/>
                </mxCell>
                <mxCell id="87" value="self call" style="edgeStyle=orthogonalEdgeStyle;html=1;align=left;spacingLeft=2;endArrow=none;rounded=0;entryX=1;entryY=0;dashed=1;strokeColor=#FCE8E8;fontSize=10;fontColor=#F0F0F0;startArrow=classic;startFill=1;endFill=0;" edge="1" target="86" parent="66">
                    <mxGeometry relative="1" as="geometry">
                        <mxPoint x="50" y="170" as="sourcePoint"/>
                        <Array as="points">
                            <mxPoint x="80" y="170"/>
                        </Array>
                    </mxGeometry>
                </mxCell>
                <mxCell id="90" value="successComponent" style="html=1;points=[];perimeter=orthogonalPerimeter;labelBackgroundColor=default;fontSize=10;fontColor=#ffffff;fillColor=#60a917;strokeColor=#2D7600;" vertex="1" parent="66">
                    <mxGeometry x="45" y="1300" width="10" height="60" as="geometry"/>
                </mxCell>
                <mxCell id="91" value="issuesComponent" style="html=1;points=[];perimeter=orthogonalPerimeter;labelBackgroundColor=default;fontSize=10;fontColor=#ffffff;fillColor=#a20025;strokeColor=#6F0000;" vertex="1" parent="66">
                    <mxGeometry x="45" y="1370" width="10" height="60" as="geometry"/>
                </mxCell>
                <mxCell id="95" value="" style="html=1;points=[];perimeter=orthogonalPerimeter;labelBackgroundColor=default;fontSize=10;fontColor=#F0F0F0;" vertex="1" parent="66">
                    <mxGeometry x="50" y="770" width="10" height="40" as="geometry"/>
                </mxCell>
                <mxCell id="96" value="filterOrderList" style="edgeStyle=orthogonalEdgeStyle;html=1;align=left;spacingLeft=2;endArrow=block;rounded=0;entryX=1;entryY=0;dashed=1;strokeColor=#FCE8E8;fontSize=10;fontColor=#F0F0F0;" edge="1" target="95" parent="66">
                    <mxGeometry relative="1" as="geometry">
                        <mxPoint x="55" y="780" as="sourcePoint"/>
                        <Array as="points">
                            <mxPoint x="85" y="780"/>
                        </Array>
                    </mxGeometry>
                </mxCell>
                <mxCell id="97" value="" style="html=1;points=[];perimeter=orthogonalPerimeter;labelBackgroundColor=default;fontSize=10;fontColor=#FCE8E8;" vertex="1" parent="66">
                    <mxGeometry x="50" y="840" width="10" height="20" as="geometry"/>
                </mxCell>
                <mxCell id="98" value="updateList" style="edgeStyle=orthogonalEdgeStyle;html=1;align=left;spacingLeft=2;endArrow=block;rounded=0;entryX=1;entryY=0;dashed=1;strokeColor=#FCE8E8;fontSize=10;fontColor=#FCE8E8;" edge="1" target="97" parent="66">
                    <mxGeometry relative="1" as="geometry">
                        <mxPoint x="55" y="820" as="sourcePoint"/>
                        <Array as="points">
                            <mxPoint x="85" y="820"/>
                        </Array>
                    </mxGeometry>
                </mxCell>
                <mxCell id="184" value="" style="shape=umlDestroy;whiteSpace=wrap;html=1;strokeWidth=3;labelBackgroundColor=none;" vertex="1" parent="66">
                    <mxGeometry x="35" y="900" width="30" height="30" as="geometry"/>
                </mxCell>
                <mxCell id="67" value=":ClassComponents" style="shape=umlLifeline;perimeter=lifelinePerimeter;whiteSpace=wrap;html=1;container=1;collapsible=0;recursiveResize=0;outlineConnect=0;labelBackgroundColor=default;fontColor=#F0F0F0;" vertex="1" parent="1">
                    <mxGeometry x="-370" y="180" width="100" height="1297" as="geometry"/>
                </mxCell>
                <mxCell id="74" value="outlet: Event" style="html=1;points=[];perimeter=orthogonalPerimeter;labelBackgroundColor=default;fontColor=#F0F0F0;dashed=1;" vertex="1" parent="67">
                    <mxGeometry x="45" y="90" width="10" height="800" as="geometry"/>
                </mxCell>
                <mxCell id="89" value="outlet: alerte" style="html=1;points=[];perimeter=orthogonalPerimeter;labelBackgroundColor=default;fontSize=10;fontColor=#FCE8E8;fillColor=#fa6800;strokeColor=#C73500;" vertex="1" parent="67">
                    <mxGeometry x="45" y="1190" width="10" height="207" as="geometry"/>
                </mxCell>
                <mxCell id="172" value="Extends" style="endArrow=block;endSize=16;endFill=0;html=1;dashed=1;strokeColor=#80FF00;fontSize=10;fontColor=#FCE8E8;" edge="1" parent="67">
                    <mxGeometry width="160" relative="1" as="geometry">
                        <mxPoint x="50" y="1340" as="sourcePoint"/>
                        <mxPoint x="210" y="1340" as="targetPoint"/>
                    </mxGeometry>
                </mxCell>
                <mxCell id="171" value="redirectComponent" style="html=1;points=[];perimeter=orthogonalPerimeter;labelBackgroundColor=default;fontSize=10;fontColor=#ffffff;fillColor=#6a00ff;strokeColor=#3700CC;" vertex="1" parent="67">
                    <mxGeometry x="205" y="1170" width="10" height="60" as="geometry"/>
                </mxCell>
                <mxCell id="190" value="loadingComponent" style="html=1;points=[];perimeter=orthogonalPerimeter;labelBackgroundColor=default;fontSize=10;fontColor=#ffffff;fillColor=#d80073;strokeColor=#A50040;" vertex="1" parent="67">
                    <mxGeometry x="205" y="1237" width="10" height="60" as="geometry"/>
                </mxCell>
                <mxCell id="105" value="" style="endArrow=block;dashed=1;endFill=0;endSize=12;html=1;strokeColor=#FCE8E8;fontSize=10;fontColor=#F0F0F0;exitX=0.993;exitY=0.249;exitDx=0;exitDy=0;exitPerimeter=0;entryX=-0.432;entryY=1.061;entryDx=0;entryDy=0;entryPerimeter=0;" edge="1" parent="67" source="89" target="171">
                    <mxGeometry width="160" relative="1" as="geometry">
                        <mxPoint x="58" y="1213" as="sourcePoint"/>
                        <mxPoint x="209.5" y="1271.583" as="targetPoint"/>
                    </mxGeometry>
                </mxCell>
                <mxCell id="68" value="Classe de composant Front dit &quot;page&quot;" style="shape=note2;boundedLbl=1;whiteSpace=wrap;html=1;size=6;verticalAlign=top;align=center;labelBackgroundColor=none;fillColor=#e3c800;fontColor=#000000;strokeColor=#B09500;" vertex="1" parent="1">
                    <mxGeometry x="-405" y="90" width="170" height="50" as="geometry"/>
                </mxCell>
                <mxCell id="69" value="Composant Front dit &quot;sous-partie&quot;" style="shape=note2;boundedLbl=1;whiteSpace=wrap;html=1;size=6;verticalAlign=top;align=center;labelBackgroundColor=none;fillColor=#e3c800;fontColor=#000000;strokeColor=#B09500;" vertex="1" parent="1">
                    <mxGeometry x="-220" y="90" width="170" height="50" as="geometry"/>
                </mxCell>
                <mxCell id="72" value="Écouteur d'évènements du composant" style="shape=note2;boundedLbl=1;whiteSpace=wrap;html=1;size=6;verticalAlign=top;align=center;labelBackgroundColor=none;fillColor=#e3c800;fontColor=#000000;strokeColor=#B09500;" vertex="1" parent="1">
                    <mxGeometry x="10" y="90" width="170" height="50" as="geometry"/>
                </mxCell>
                <mxCell id="75" value="requestEventManagmentPage" style="html=1;verticalAlign=bottom;startArrow=oval;endArrow=block;startSize=8;dashed=1;strokeColor=#FCE8E8;fontColor=#F0F0F0;" edge="1" target="74" parent="1" source="2">
                    <mxGeometry relative="1" as="geometry">
                        <mxPoint x="-385" y="280" as="sourcePoint"/>
                    </mxGeometry>
                </mxCell>
                <mxCell id="9" value="completNewEventFormularyInputs" style="html=1;verticalAlign=bottom;endArrow=block;entryX=-0.182;entryY=0.172;entryDx=0;entryDy=0;entryPerimeter=0;" parent="1" target="24" edge="1">
                    <mxGeometry width="80" relative="1" as="geometry">
                        <mxPoint x="-150" y="280" as="sourcePoint"/>
                        <mxPoint x="-330" y="270" as="targetPoint"/>
                    </mxGeometry>
                </mxCell>
                <mxCell id="77" value="&lt;span style=&quot;&quot;&gt;Modification d'un concert (dit &quot;event&quot;)&lt;/span&gt;" style="shape=note2;boundedLbl=1;whiteSpace=wrap;html=1;size=6;verticalAlign=top;align=center;labelBackgroundColor=none;fillColor=#e3c800;fontColor=#000000;strokeColor=#B09500;fontSize=10;" vertex="1" parent="1">
                    <mxGeometry x="-270" y="460" width="80" height="65" as="geometry"/>
                </mxCell>
                <mxCell id="78" value="&lt;span style=&quot;&quot;&gt;Suppression d'un concert (dit &quot;event&quot;)&lt;/span&gt;" style="shape=note2;boundedLbl=1;whiteSpace=wrap;html=1;size=6;verticalAlign=top;align=center;labelBackgroundColor=none;fillColor=#e3c800;fontColor=#000000;strokeColor=#B09500;fontSize=10;" vertex="1" parent="1">
                    <mxGeometry x="-280" y="790" width="80" height="65" as="geometry"/>
                </mxCell>
                <mxCell id="52" value="Création d'un nouveau concert (dit &quot;event&quot;)" style="shape=note2;boundedLbl=1;whiteSpace=wrap;html=1;size=6;verticalAlign=top;align=center;labelBackgroundColor=none;fillColor=#e3c800;fontColor=#000000;strokeColor=#B09500;fontSize=10;" vertex="1" parent="1">
                    <mxGeometry x="-280" y="230" width="80" height="65" as="geometry"/>
                </mxCell>
                <mxCell id="93" value="" style="endArrow=block;dashed=1;endFill=0;endSize=12;html=1;strokeColor=#FCE8E8;fontSize=10;fontColor=#F0F0F0;entryX=-0.1;entryY=0.204;entryDx=0;entryDy=0;entryPerimeter=0;exitX=1.5;exitY=0.435;exitDx=0;exitDy=0;exitPerimeter=0;" edge="1" parent="1" source="74" target="79">
                    <mxGeometry width="160" relative="1" as="geometry">
                        <mxPoint x="-310" y="570" as="sourcePoint"/>
                        <mxPoint x="-170" y="570" as="targetPoint"/>
                    </mxGeometry>
                </mxCell>
                <mxCell id="99" value="getList" style="html=1;verticalAlign=bottom;endArrow=block;" edge="1" parent="1" target="19">
                    <mxGeometry x="-0.0176" y="10" width="80" relative="1" as="geometry">
                        <mxPoint x="-150" y="1030.0000000000002" as="sourcePoint"/>
                        <mxPoint x="80" y="1030.0000000000002" as="targetPoint"/>
                        <mxPoint as="offset"/>
                    </mxGeometry>
                </mxCell>
                <mxCell id="34" value="" style="shape=umlDestroy;whiteSpace=wrap;html=1;strokeWidth=3;labelBackgroundColor=none;" vertex="1" parent="1">
                    <mxGeometry x="65" y="890" width="30" height="30" as="geometry"/>
                </mxCell>
                <mxCell id="104" value="serviceWeldoneCallingAction..." style="html=1;verticalAlign=bottom;startArrow=oval;startFill=1;endArrow=block;startSize=8;dashed=1;strokeColor=#80FF00;fontSize=10;fontColor=#80FF00;entryX=0.958;entryY=0.939;entryDx=0;entryDy=0;entryPerimeter=0;" edge="1" parent="1" target="90">
                    <mxGeometry width="60" relative="1" as="geometry">
                        <mxPoint x="230" y="1536" as="sourcePoint"/>
                        <mxPoint x="200" y="1413" as="targetPoint"/>
                    </mxGeometry>
                </mxCell>
                <mxCell id="106" value="" style="endArrow=block;dashed=1;endFill=0;endSize=12;html=1;strokeColor=#FCE8E8;fontSize=10;fontColor=#F0F0F0;exitX=1.068;exitY=0.66;exitDx=0;exitDy=0;exitPerimeter=0;" edge="1" parent="1" source="89">
                    <mxGeometry width="160" relative="1" as="geometry">
                        <mxPoint x="-314.11999999999995" y="1463" as="sourcePoint"/>
                        <mxPoint x="-160.5" y="1520.22" as="targetPoint"/>
                    </mxGeometry>
                </mxCell>
                <mxCell id="49" value="deleteEvent" style="html=1;verticalAlign=bottom;endArrow=block;exitX=1.247;exitY=0.301;exitDx=0;exitDy=0;exitPerimeter=0;" edge="1" parent="1" source="82" target="4">
                    <mxGeometry x="-0.0176" y="10" width="80" relative="1" as="geometry">
                        <mxPoint x="-108.18" y="660" as="sourcePoint"/>
                        <mxPoint x="75.00000000000006" y="660.3200000000002" as="targetPoint"/>
                        <mxPoint as="offset"/>
                    </mxGeometry>
                </mxCell>
                <mxCell id="59" value="deleteAnEvent" style="html=1;verticalAlign=bottom;endArrow=block;exitX=1.431;exitY=0.214;exitDx=0;exitDy=0;exitPerimeter=0;" edge="1" parent="1" source="58" target="28">
                    <mxGeometry x="0.0238" y="14" width="80" relative="1" as="geometry">
                        <mxPoint x="85" y="640" as="sourcePoint"/>
                        <mxPoint x="225" y="640" as="targetPoint"/>
                        <mxPoint as="offset"/>
                    </mxGeometry>
                </mxCell>
                <mxCell id="162" value="httpRequest" style="html=1;verticalAlign=bottom;endArrow=block;entryX=0;entryY=0;exitX=1.186;exitY=0.471;exitDx=0;exitDy=0;exitPerimeter=0;" edge="1" parent="1" target="156" source="196">
                    <mxGeometry x="-0.0025" relative="1" as="geometry">
                        <mxPoint x="405.3800000000001" y="1009.6500000000001" as="sourcePoint"/>
                        <mxPoint as="offset"/>
                    </mxGeometry>
                </mxCell>
                <mxCell id="94" value="" style="endArrow=block;dashed=1;endFill=0;endSize=12;html=1;strokeColor=#FCE8E8;fontSize=10;fontColor=#F0F0F0;exitX=0.941;exitY=0.087;exitDx=0;exitDy=0;exitPerimeter=0;" edge="1" parent="1" source="74" target="76">
                    <mxGeometry width="160" relative="1" as="geometry">
                        <mxPoint x="-309" y="330.0000000000001" as="sourcePoint"/>
                        <mxPoint x="-165" y="330.21000000000004" as="targetPoint"/>
                    </mxGeometry>
                </mxCell>
                <mxCell id="181" value="callBackData" style="html=1;verticalAlign=bottom;endArrow=open;dashed=1;endSize=8;fontColor=#33FFFF;strokeColor=#006EAF;fillColor=#1ba1e2;entryX=1.164;entryY=0.92;entryDx=0;entryDy=0;entryPerimeter=0;exitX=0.053;exitY=0.698;exitDx=0;exitDy=0;exitPerimeter=0;edgeStyle=orthogonalEdgeStyle;" edge="1" parent="1" source="189">
                    <mxGeometry x="0.8097" y="-10" relative="1" as="geometry">
                        <mxPoint x="-150.0000000000001" y="600.4000000000001" as="targetPoint"/>
                        <mxPoint x="242.86000000000047" y="600" as="sourcePoint"/>
                        <Array as="points">
                            <mxPoint x="40" y="1266"/>
                            <mxPoint x="40" y="600"/>
                        </Array>
                        <mxPoint x="1" as="offset"/>
                    </mxGeometry>
                </mxCell>
                <mxCell id="182" value="callBackData" style="html=1;verticalAlign=bottom;endArrow=open;dashed=1;endSize=8;fontColor=#33FFFF;strokeColor=#006EAF;fillColor=#1ba1e2;entryX=1.164;entryY=0.92;entryDx=0;entryDy=0;entryPerimeter=0;exitX=-0.454;exitY=0.613;exitDx=0;exitDy=0;exitPerimeter=0;edgeStyle=orthogonalEdgeStyle;" edge="1" parent="1" source="189">
                    <mxGeometry relative="1" as="geometry">
                        <mxPoint x="-150.0000000000001" y="1050.4" as="targetPoint"/>
                        <mxPoint x="242.86000000000047" y="1050" as="sourcePoint"/>
                        <Array as="points">
                            <mxPoint x="40" y="1259"/>
                            <mxPoint x="40" y="1050"/>
                        </Array>
                    </mxGeometry>
                </mxCell>
                <mxCell id="28" value="" style="html=1;points=[];perimeter=orthogonalPerimeter;labelBackgroundColor=none;" vertex="1" parent="1">
                    <mxGeometry x="235" y="270" width="10" height="830" as="geometry"/>
                </mxCell>
                <mxCell id="102" value="issueWhenCallingService" style="html=1;verticalAlign=bottom;endArrow=open;dashed=1;endSize=8;entryX=1.089;entryY=0.497;entryDx=0;entryDy=0;entryPerimeter=0;fontColor=#FF0000;strokeColor=#FF3333;exitX=0.469;exitY=0.686;exitDx=0;exitDy=0;exitPerimeter=0;" edge="1" parent="1" source="183" target="91">
                    <mxGeometry relative="1" as="geometry">
                        <mxPoint x="99.57999999999993" y="1478.14" as="targetPoint"/>
                        <mxPoint x="240" y="1483" as="sourcePoint"/>
                    </mxGeometry>
                </mxCell>
                <mxCell id="62" value="SuccesMsgService" style="html=1;points=[];perimeter=orthogonalPerimeter;labelBackgroundColor=default;fontColor=#ffffff;fillColor=#60a917;strokeColor=#2D7600;" vertex="1" parent="1">
                    <mxGeometry x="235" y="1510" width="10" height="40" as="geometry"/>
                </mxCell>
                <mxCell id="191" value="IssueService" style="html=1;points=[];perimeter=orthogonalPerimeter;labelBackgroundColor=default;fontSize=10;fontColor=#ffffff;fillColor=#a20025;strokeColor=#6F0000;" vertex="1" parent="1">
                    <mxGeometry x="235" y="1560" width="10" height="60" as="geometry"/>
                </mxCell>
                <mxCell id="193" value="LoadingService" style="html=1;points=[];perimeter=orthogonalPerimeter;labelBackgroundColor=default;fontSize=10;fontColor=#ffffff;fillColor=#d80073;strokeColor=#A50040;" vertex="1" parent="1">
                    <mxGeometry x="235" y="1427" width="10" height="60" as="geometry"/>
                </mxCell>
                <mxCell id="187" value="callback" style="shape=umlFrame;whiteSpace=wrap;html=1;labelBackgroundColor=default;fontSize=10;fontColor=#FCE8E8;" vertex="1" parent="1">
                    <mxGeometry x="-450" y="1130" width="1470" height="190" as="geometry"/>
                </mxCell>
                <mxCell id="173" value="callBackData" style="html=1;verticalAlign=bottom;endArrow=open;dashed=1;endSize=8;fontColor=#33FFFF;strokeColor=#006EAF;fillColor=#1ba1e2;entryX=1.164;entryY=0.92;entryDx=0;entryDy=0;entryPerimeter=0;exitX=0.191;exitY=0.681;exitDx=0;exitDy=0;exitPerimeter=0;edgeStyle=orthogonalEdgeStyle;" edge="1" parent="1" source="189" target="76">
                    <mxGeometry x="0.8221" y="-10" relative="1" as="geometry">
                        <mxPoint x="-150" y="330" as="targetPoint"/>
                        <mxPoint x="239.50000000000045" y="380" as="sourcePoint"/>
                        <Array as="points">
                            <mxPoint x="40" y="1265"/>
                            <mxPoint x="40" y="380"/>
                        </Array>
                        <mxPoint x="1" as="offset"/>
                    </mxGeometry>
                </mxCell>
                <mxCell id="195" value="callBackData" style="html=1;verticalAlign=bottom;endArrow=open;dashed=1;endSize=8;fontColor=#33FFFF;strokeColor=#006EAF;fillColor=#1ba1e2;entryX=1.108;entryY=0.37;entryDx=0;entryDy=0;entryPerimeter=0;edgeStyle=orthogonalEdgeStyle;" edge="1" parent="1" source="5" target="189">
                    <mxGeometry x="-0.8722" y="5" relative="1" as="geometry">
                        <mxPoint x="250" y="1240.0000000000005" as="targetPoint"/>
                        <mxPoint x="630" y="1450" as="sourcePoint"/>
                        <mxPoint as="offset"/>
                    </mxGeometry>
                </mxCell>
                <mxCell id="197" value="callBackData" style="html=1;verticalAlign=bottom;endArrow=open;dashed=1;endSize=8;fontColor=#33FFFF;strokeColor=#006EAF;fillColor=#1ba1e2;entryX=1.001;entryY=0.481;entryDx=0;entryDy=0;entryPerimeter=0;edgeStyle=orthogonalEdgeStyle;exitX=0.017;exitY=0.814;exitDx=0;exitDy=0;exitPerimeter=0;" edge="1" parent="1" source="109" target="189">
                    <mxGeometry x="-0.909" y="4" relative="1" as="geometry">
                        <mxPoint x="256.0799999999999" y="1249.6" as="targetPoint"/>
                        <mxPoint x="409.5" y="785" as="sourcePoint"/>
                        <mxPoint as="offset"/>
                    </mxGeometry>
                </mxCell>
                <mxCell id="198" value="callBackData" style="html=1;verticalAlign=bottom;endArrow=open;dashed=1;endSize=8;fontColor=#33FFFF;strokeColor=#006EAF;fillColor=#1ba1e2;entryX=1.017;entryY=0.659;entryDx=0;entryDy=0;entryPerimeter=0;edgeStyle=orthogonalEdgeStyle;exitX=0.017;exitY=0.684;exitDx=0;exitDy=0;exitPerimeter=0;" edge="1" parent="1" source="32" target="189">
                    <mxGeometry x="-0.9292" relative="1" as="geometry">
                        <mxPoint x="266.0799999999999" y="1259.6" as="targetPoint"/>
                        <mxPoint x="405.1699999999996" y="635.8200000000002" as="sourcePoint"/>
                        <mxPoint x="1" as="offset"/>
                    </mxGeometry>
                </mxCell>
                <mxCell id="199" value="" style="html=1;verticalAlign=bottom;endArrow=open;dashed=1;endSize=8;fontColor=#80FF00;strokeColor=#2D7600;fillColor=#60a917;exitX=-0.282;exitY=0.611;exitDx=0;exitDy=0;exitPerimeter=0;entryX=1.063;entryY=0.744;entryDx=0;entryDy=0;entryPerimeter=0;edgeStyle=orthogonalEdgeStyle;" edge="1" parent="1" target="62">
                    <mxGeometry relative="1" as="geometry">
                        <mxPoint x="255" y="790" as="targetPoint"/>
                        <mxPoint x="400" y="790" as="sourcePoint"/>
                        <Array as="points">
                            <mxPoint x="340" y="790"/>
                            <mxPoint x="340" y="1540"/>
                        </Array>
                    </mxGeometry>
                </mxCell>
                <mxCell id="200" value="succesMsg" style="edgeLabel;html=1;align=center;verticalAlign=middle;resizable=0;points=[];fontSize=10;fontColor=#80FF00;" vertex="1" connectable="0" parent="199">
                    <mxGeometry x="-0.8929" y="1" relative="1" as="geometry">
                        <mxPoint as="offset"/>
                    </mxGeometry>
                </mxCell>
                <mxCell id="202" value="issue" style="html=1;verticalAlign=bottom;endArrow=open;dashed=1;endSize=8;fontColor=#FF0000;strokeColor=#FF3333;edgeStyle=orthogonalEdgeStyle;exitX=0.089;exitY=1.008;exitDx=0;exitDy=0;exitPerimeter=0;" edge="1" parent="1" source="109" target="191">
                    <mxGeometry x="-0.9702" relative="1" as="geometry">
                        <mxPoint x="256.94000000000005" y="1579.1799999999998" as="targetPoint"/>
                        <mxPoint x="404.9200000000001" y="820" as="sourcePoint"/>
                        <Array as="points">
                            <mxPoint x="360" y="651"/>
                            <mxPoint x="360" y="1579"/>
                        </Array>
                        <mxPoint as="offset"/>
                    </mxGeometry>
                </mxCell>
                <mxCell id="204" value="" style="html=1;verticalAlign=bottom;endArrow=open;dashed=1;endSize=8;fontColor=#80FF00;strokeColor=#2D7600;fillColor=#60a917;exitX=-0.089;exitY=0.911;exitDx=0;exitDy=0;exitPerimeter=0;entryX=1.063;entryY=0.744;entryDx=0;entryDy=0;entryPerimeter=0;edgeStyle=orthogonalEdgeStyle;" edge="1" parent="1" source="109">
                    <mxGeometry relative="1" as="geometry">
                        <mxPoint x="255.6300000000001" y="1549.7599999999998" as="targetPoint"/>
                        <mxPoint x="410" y="800" as="sourcePoint"/>
                        <Array as="points">
                            <mxPoint x="340" y="638"/>
                            <mxPoint x="340" y="1550"/>
                        </Array>
                    </mxGeometry>
                </mxCell>
                <mxCell id="205" value="succesMsg" style="edgeLabel;html=1;align=center;verticalAlign=middle;resizable=0;points=[];fontSize=10;fontColor=#80FF00;" vertex="1" connectable="0" parent="204">
                    <mxGeometry x="-0.8929" y="1" relative="1" as="geometry">
                        <mxPoint as="offset"/>
                    </mxGeometry>
                </mxCell>
                <mxCell id="206" value="" style="html=1;verticalAlign=bottom;endArrow=open;dashed=1;endSize=8;fontColor=#80FF00;strokeColor=#2D7600;fillColor=#60a917;exitX=-0.341;exitY=0.803;exitDx=0;exitDy=0;exitPerimeter=0;entryX=1.017;entryY=0.365;entryDx=0;entryDy=0;entryPerimeter=0;edgeStyle=orthogonalEdgeStyle;" edge="1" parent="1" source="32" target="62">
                    <mxGeometry relative="1" as="geometry">
                        <mxPoint x="255.6300000000001" y="1549.7600000000002" as="targetPoint"/>
                        <mxPoint x="410" y="800" as="sourcePoint"/>
                        <Array as="points">
                            <mxPoint x="340" y="404"/>
                            <mxPoint x="340" y="1520"/>
                            <mxPoint x="245" y="1520"/>
                        </Array>
                    </mxGeometry>
                </mxCell>
                <mxCell id="207" value="succesMsg" style="edgeLabel;html=1;align=center;verticalAlign=middle;resizable=0;points=[];fontSize=10;fontColor=#80FF00;" vertex="1" connectable="0" parent="206">
                    <mxGeometry x="-0.8929" y="1" relative="1" as="geometry">
                        <mxPoint as="offset"/>
                    </mxGeometry>
                </mxCell>
                <mxCell id="208" value="issue" style="html=1;verticalAlign=bottom;endArrow=open;dashed=1;endSize=8;entryX=1.362;entryY=0.499;entryDx=0;entryDy=0;entryPerimeter=0;fontColor=#FF0000;strokeColor=#FF3333;edgeStyle=orthogonalEdgeStyle;exitX=-0.155;exitY=0.913;exitDx=0;exitDy=0;exitPerimeter=0;" edge="1" parent="1" source="32" target="191">
                    <mxGeometry x="-0.9702" relative="1" as="geometry">
                        <mxPoint x="266.94000000000005" y="1589.1799999999998" as="targetPoint"/>
                        <mxPoint x="405.8900000000001" y="661.04" as="sourcePoint"/>
                        <Array as="points">
                            <mxPoint x="393" y="420"/>
                            <mxPoint x="360" y="420"/>
                            <mxPoint x="360" y="1590"/>
                        </Array>
                        <mxPoint as="offset"/>
                    </mxGeometry>
                </mxCell>
            </root>
        </mxGraphModel>
    </diagram>
</mxfile>